<?xml version="1.0" standalone="no"?>
<!DOCTYPE svg PUBLIC "-//W3C//DTD SVG 20010904//EN"
 "http://www.w3.org/TR/2001/REC-SVG-20010904/DTD/svg10.dtd">
<svg version="1.0" xmlns="http://www.w3.org/2000/svg"
 width="970.000000pt" height="550.000000pt" viewBox="0 0 970.000000 550.000000"
 preserveAspectRatio="xMidYMid meet">
<metadata>
Created by potrace 1.16, written by Peter Selinger 2001-2019
</metadata>
<g transform="translate(0.000000,550.000000) scale(0.100000,-0.100000)"
fill="#000000" stroke="none">
<path d="M6759 4980 c-149 -26 -219 -126 -219 -312 0 -147 46 -239 144 -291
61 -32 212 -31 279 2 97 47 140 139 140 296 0 111 -21 176 -71 229 -63 65
-167 94 -273 76z m141 -112 c50 -34 74 -90 78 -180 8 -164 -69 -263 -186 -237
-49 11 -79 35 -104 82 -18 35 -22 58 -22 137 0 83 4 102 25 140 42 78 140 104
209 58z"/>
<path d="M2165 4969 c-119 -18 -237 -70 -384 -172 -104 -73 -278 -248 -348
-352 -104 -154 -212 -393 -243 -535 -6 -30 -18 -84 -26 -119 -7 -35 -19 -120
-25 -190 -9 -105 -8 -147 5 -251 8 -69 20 -145 26 -170 30 -135 41 -174 73
-265 100 -284 135 -344 369 -637 121 -152 148 -189 148 -203 0 -6 -98 -60
-217 -121 -251 -126 -551 -291 -638 -350 -122 -84 -160 -119 -195 -185 -36
-68 -91 -153 -152 -234 -21 -27 -37 -55 -36 -62 5 -19 398 -275 414 -269 8 3
14 14 14 25 0 11 4 22 9 25 5 3 12 22 16 42 3 20 27 84 52 143 94 221 194 360
303 423 85 49 649 328 664 328 7 0 87 -78 177 -172 90 -95 207 -218 260 -273
52 -55 187 -197 299 -315 195 -205 482 -508 619 -652 35 -38 67 -68 71 -68 12
0 209 396 202 407 -8 12 -197 220 -367 403 -23 25 -61 68 -85 95 -23 28 -70
79 -105 115 -34 36 -83 90 -110 120 -26 30 -73 82 -105 115 -31 33 -76 83
-100 110 -23 28 -70 79 -104 115 -125 133 -196 218 -196 233 0 9 49 42 123 82
378 209 575 353 690 505 126 167 178 304 207 541 11 86 11 147 1 318 -6 116
-19 251 -26 301 -26 155 -123 412 -250 656 -79 154 -131 224 -205 279 -237
174 -547 254 -825 214z m202 -289 c162 -38 151 -30 198 -155 44 -119 89 -222
138 -315 28 -52 65 -138 84 -190 73 -202 145 -439 139 -455 -3 -9 -15 -19 -27
-22 -19 -5 -20 -11 -14 -52 9 -59 12 -63 34 -49 39 24 48 6 55 -114 3 -62 9
-142 12 -178 10 -116 -42 -301 -113 -401 -86 -122 -326 -290 -515 -361 -72
-28 -96 -32 -183 -32 -91 -1 -104 1 -146 26 -68 40 -126 110 -173 206 -22 48
-49 99 -59 113 -47 70 -88 375 -89 669 l-2 225 38 140 c62 233 72 251 126 207
22 -18 22 -20 11 -114 -6 -53 -11 -106 -11 -117 0 -37 26 -22 39 22 43 146
131 338 220 482 27 44 64 104 81 133 45 75 60 80 117 43 26 -17 55 -31 66 -31
23 0 77 55 77 79 0 11 -26 35 -62 59 -212 139 -212 140 -172 177 15 14 31 25
35 25 5 0 48 -9 96 -20z"/>
<path d="M4442 4972 c-9 -7 -12 -75 -10 -308 l3 -299 50 0 50 0 6 215 c3 118
6 217 8 220 1 3 51 -95 111 -218 l109 -223 83 3 83 3 0 305 0 304 -50 0 -50 0
-3 -204 c-1 -112 -7 -209 -12 -214 -6 -6 -47 68 -112 202 l-102 212 -55 0
c-31 0 -65 3 -76 5 -11 3 -26 2 -33 -3z"/>
<path d="M5264 4965 c-11 -9 -54 -118 -161 -405 -19 -52 -41 -110 -49 -128 -8
-18 -14 -42 -14 -53 0 -18 6 -20 62 -17 l63 3 20 57 c11 31 23 60 27 64 9 8
244 7 258 -1 6 -3 10 -12 10 -20 0 -7 9 -34 20 -59 l19 -46 61 0 c70 0 74 8
41 88 -11 26 -58 150 -105 276 -48 127 -90 234 -95 239 -13 13 -141 14 -157 2z
m90 -127 c2 -7 20 -62 40 -123 20 -60 36 -113 36 -117 0 -5 -40 -8 -90 -8 -67
0 -90 3 -90 13 0 7 16 60 35 118 46 136 43 129 55 129 6 0 12 -6 14 -12z"/>
<path d="M5940 4970 c-217 -5 -235 -6 -238 -23 -2 -10 -1 -29 2 -42 6 -23 11
-24 94 -27 l87 -3 5 -255 5 -255 60 0 60 0 3 257 2 257 93 3 92 3 3 37 c2 28
-1 39 -15 45 -10 4 -124 6 -253 3z"/>
<path d="M7232 4968 c-14 -14 -17 -574 -3 -596 5 -9 25 -12 57 -10 l49 3 3
205 c1 113 4 211 7 219 3 8 34 -44 69 -115 34 -71 82 -169 107 -219 l44 -90
85 0 85 0 3 303 c1 166 -1 302 -5 303 -74 6 -95 3 -104 -13 -6 -10 -9 -100 -9
-201 2 -219 2 -210 -10 -202 -8 5 -122 231 -176 352 -12 28 -28 54 -33 58 -21
13 -157 15 -169 3z"/>
<path d="M8059 4969 c-5 -3 -30 -61 -55 -130 -26 -68 -57 -151 -70 -184 -69
-179 -102 -281 -95 -288 4 -4 32 -7 62 -5 58 3 54 0 96 93 10 22 21 39 26 38
4 -2 60 -3 126 -3 l119 0 17 -52 c24 -74 29 -78 97 -78 l60 0 -5 28 c-3 15
-28 88 -57 162 -28 74 -75 196 -103 270 -28 74 -54 140 -59 145 -9 10 -143 14
-159 4z m124 -232 c20 -62 37 -121 37 -130 0 -15 -12 -17 -91 -17 -81 0 -90 2
-85 17 4 9 22 63 41 120 36 110 42 123 53 123 4 0 24 -51 45 -113z"/>
<path d="M6302 4668 l3 -303 53 -3 c47 -3 53 -1 60 20 4 13 6 150 4 306 l-3
282 -59 0 -60 0 2 -302z"/>
<path d="M8536 4954 c-3 -9 -6 -138 -6 -288 0 -202 3 -277 13 -289 11 -16 32
-17 192 -15 l180 3 0 45 0 45 -125 5 -125 5 -3 253 -2 252 -59 0 c-44 0 -60
-4 -65 -16z"/>
<path d="M4741 3905 c-77 -24 -130 -97 -131 -180 0 -65 30 -102 115 -141 40
-19 79 -34 85 -34 30 0 112 -35 125 -53 37 -53 -3 -107 -83 -115 -74 -7 -113
19 -136 91 -4 13 -17 17 -61 17 -65 0 -74 -11 -56 -70 26 -89 98 -130 226
-130 101 0 165 21 208 69 59 65 64 170 10 221 -27 26 -122 67 -209 89 -90 24
-121 83 -68 132 50 47 140 26 165 -38 8 -20 15 -23 70 -23 l62 0 -6 41 c-8 59
-62 112 -128 127 -65 15 -133 14 -188 -3z"/>
<path d="M6552 3908 c-5 -7 -20 -53 -32 -103 -12 -49 -32 -124 -45 -165 -12
-41 -26 -91 -30 -110 -4 -19 -20 -82 -36 -139 -16 -58 -29 -108 -29 -113 0 -4
15 -8 33 -8 36 0 28 -22 112 295 20 77 48 179 61 227 31 112 31 128 0 128 -13
0 -28 -6 -34 -12z"/>
<path d="M8387 3906 c-86 -24 -146 -110 -134 -196 11 -81 56 -115 218 -164 92
-28 119 -48 119 -88 0 -57 -100 -97 -170 -68 -31 13 -60 54 -60 85 0 13 -11
15 -62 13 l-63 -3 2 -39 c4 -53 37 -103 87 -128 58 -30 185 -37 260 -13 99 31
154 116 134 208 -14 67 -48 93 -184 138 -65 22 -126 47 -136 56 -26 23 -22 65
8 94 50 47 149 22 170 -43 5 -16 14 -19 62 -16 54 3 57 4 60 31 4 31 -28 88
-61 109 -56 36 -165 47 -250 24z"/>
<path d="M5154 3896 c-3 -8 -4 -27 -2 -43 3 -28 3 -28 88 -33 47 -3 91 -9 98
-13 9 -6 12 -69 12 -258 l0 -249 60 0 60 0 0 244 c0 134 3 251 6 260 5 13 23
16 96 16 l89 0 -3 43 -3 42 -248 3 c-207 2 -248 0 -253 -12z"/>
<path d="M5760 3606 l0 -306 133 0 c151 0 229 16 286 57 84 60 116 141 109
276 -5 97 -38 169 -99 217 -59 47 -84 53 -261 58 l-168 4 0 -306z m297 191
c39 -20 86 -70 95 -99 11 -42 8 -168 -6 -201 -29 -71 -108 -111 -206 -105
l-55 3 -3 199 c-2 147 1 202 10 213 16 20 120 13 165 -10z"/>
<path d="M6884 3902 c-6 -4 -34 -70 -62 -147 -28 -77 -60 -162 -70 -190 -66
-165 -92 -237 -92 -250 0 -12 14 -15 64 -15 l64 0 17 53 c9 28 22 58 27 65 15
17 244 17 255 0 4 -7 17 -35 29 -63 l20 -50 53 -3 c71 -4 83 1 72 30 -5 13
-23 59 -39 103 -17 44 -52 136 -78 205 -26 69 -55 148 -65 177 -32 94 -31 93
-112 93 -40 0 -77 -4 -83 -8z m104 -174 c53 -146 65 -190 51 -199 -20 -12
-156 -11 -164 1 -4 6 10 59 30 118 20 59 38 113 40 120 9 25 24 10 43 -40z"/>
<path d="M7360 3605 l0 -305 60 0 60 0 -2 303 -3 302 -57 3 -58 3 0 -306z"/>
<path d="M7618 3904 c-5 -4 -8 -142 -8 -306 l0 -298 138 0 c152 0 221 14 283
54 145 97 158 367 23 486 -64 56 -93 63 -269 68 -88 2 -163 1 -167 -4z m253
-96 c124 -29 179 -153 132 -298 -26 -81 -92 -120 -204 -120 l-59 0 0 208 c0
115 3 212 7 215 10 11 66 8 124 -5z"/>
<path d="M4791 2849 c-135 -32 -204 -135 -205 -309 -2 -211 88 -314 274 -315
88 0 139 16 186 58 54 46 96 145 64 148 -93 6 -104 3 -127 -37 -33 -58 -58
-74 -115 -74 -94 0 -143 56 -154 176 -14 150 35 251 127 261 61 7 110 -16 135
-65 19 -35 22 -37 77 -40 70 -4 78 9 47 73 -24 49 -67 91 -118 112 -44 18
-138 24 -191 12z"/>
<path d="M5422 2849 c-141 -34 -207 -132 -207 -309 0 -113 19 -178 70 -238 48
-56 108 -77 215 -77 191 0 280 100 280 315 0 148 -47 243 -144 289 -51 25
-153 34 -214 20z m173 -129 c39 -38 53 -73 59 -148 10 -112 -25 -211 -86 -243
-35 -19 -113 -14 -152 10 -45 28 -76 107 -76 194 0 64 21 149 42 175 53 63
154 69 213 12z"/>
<path d="M7878 2847 c-57 -16 -121 -58 -144 -93 -33 -49 -54 -135 -54 -217 0
-102 23 -176 72 -232 51 -58 110 -80 213 -80 104 0 162 22 213 81 52 58 67
115 66 239 -2 155 -40 232 -137 279 -65 32 -162 42 -229 23z m183 -123 c84
-80 76 -329 -13 -383 -35 -22 -97 -30 -132 -19 -76 26 -105 85 -106 215 0 102
9 135 48 177 37 39 58 46 120 43 42 -3 59 -10 83 -33z"/>
<path d="M5896 2824 c-9 -24 -7 -567 3 -582 5 -9 25 -12 57 -10 l49 3 5 210
c3 131 9 210 15 209 12 -1 13 -2 126 -237 l91 -188 86 3 87 3 3 280 c1 154 0
290 -3 303 -5 19 -12 22 -60 22 l-55 0 0 -204 c0 -113 -4 -207 -9 -210 -7 -5
-76 125 -170 327 l-41 87 -89 0 c-72 0 -90 -3 -95 -16z"/>
<path d="M6514 2826 c-3 -8 -4 -27 -2 -43 l3 -28 85 -3 c47 -2 88 -6 93 -11 4
-4 8 -115 8 -247 0 -131 3 -245 8 -252 5 -9 25 -12 62 -10 l54 3 5 255 5 255
88 3 87 3 0 44 0 45 -245 0 c-203 0 -247 -2 -251 -14z"/>
<path d="M7115 2827 c-3 -7 -4 -143 -3 -302 l3 -290 60 0 60 0 5 120 5 120 71
3 c100 4 109 -6 129 -133 9 -55 21 -103 28 -107 13 -8 104 -5 113 4 5 6 -13
134 -32 217 -3 13 -19 37 -35 52 l-30 28 45 44 c28 27 46 53 47 68 4 98 -13
132 -86 165 -46 22 -63 24 -213 24 -122 0 -164 -3 -167 -13z m284 -88 c31 -11
61 -52 61 -83 0 -8 -10 -27 -22 -41 -26 -29 -125 -53 -171 -41 -26 6 -27 8
-27 85 0 43 3 81 7 84 10 11 117 8 152 -4z"/>
<path d="M8372 2538 l3 -303 181 -3 c204 -3 212 0 200 63 l-7 34 -122 3 -122
3 -5 250 -5 250 -63 3 -62 3 2 -303z"/>
<path d="M5105 1781 c-73 -18 -131 -65 -166 -132 -17 -33 -23 -67 -27 -139 -9
-180 30 -269 142 -324 51 -26 70 -30 140 -30 70 0 89 4 141 30 48 24 66 39 91
81 89 148 60 388 -56 472 -62 45 -178 63 -265 42z m168 -109 c15 -9 39 -40 54
-69 23 -48 25 -62 21 -147 -3 -82 -7 -99 -32 -136 -33 -51 -83 -74 -143 -67
-58 6 -86 27 -114 84 -35 70 -34 197 1 268 43 87 132 115 213 67z"/>
<path d="M5782 1775 c-148 -46 -221 -189 -193 -376 16 -101 59 -167 134 -203
98 -48 227 -56 355 -20 l52 15 0 149 0 150 -126 0 -125 0 3 -42 3 -43 58 -3
57 -3 0 -69 0 -68 -49 -7 c-114 -16 -193 22 -226 110 -22 57 -17 184 9 238 22
45 75 82 130 92 63 11 136 -27 136 -71 0 -30 30 -46 83 -42 38 3 42 6 45 32 5
39 -23 95 -60 125 -59 47 -195 65 -286 36z"/>
<path d="M3815 1769 c-3 -8 -4 -145 -3 -304 l3 -290 60 0 60 0 5 110 5 110 87
7 c163 12 223 64 222 189 0 81 -27 130 -88 161 -35 19 -62 22 -193 26 -124 4
-154 2 -158 -9z m268 -101 c33 -17 46 -39 47 -79 0 -55 -36 -85 -110 -94 -32
-4 -64 -4 -69 0 -12 7 -15 167 -4 178 11 11 113 8 136 -5z"/>
<path d="M4345 1769 c-3 -8 -4 -145 -3 -304 l3 -290 60 0 60 0 3 118 c1 64 6
117 10 118 16 2 79 2 114 1 50 -3 66 -29 82 -134 7 -46 15 -89 20 -96 8 -13
126 -17 126 -4 0 4 -5 25 -10 47 -6 22 -14 73 -19 114 -8 64 -13 78 -40 103
-38 35 -38 42 -6 56 57 26 83 127 50 192 -8 16 -36 42 -62 57 -46 27 -53 28
-215 31 -136 4 -169 2 -173 -9z m301 -108 c18 -11 33 -30 36 -45 12 -64 -50
-108 -147 -104 l-60 3 -3 69 c-2 38 -1 75 2 83 9 21 134 17 172 -6z"/>
<path d="M6260 1476 l0 -307 63 3 62 3 3 115 c1 64 7 117 13 121 6 3 42 5 81
3 87 -4 92 -10 109 -124 17 -119 18 -120 91 -120 l61 0 -7 33 c-4 17 -14 73
-21 122 -13 84 -16 92 -51 121 l-37 32 32 16 c67 35 93 135 51 203 -37 62 -83
76 -277 81 l-173 5 0 -307z m308 184 c27 -17 32 -26 32 -58 0 -28 -7 -45 -25
-62 -22 -21 -36 -24 -103 -25 l-77 0 -3 69 c-2 38 -1 75 2 83 9 22 134 17 174
-7z"/>
<path d="M7001 1723 c-93 -242 -201 -532 -201 -542 0 -7 23 -11 64 -11 l64 0
18 53 c26 80 22 78 158 75 134 -3 119 5 160 -90 16 -38 16 -38 75 -38 64 0 78
9 61 37 -6 10 -24 54 -39 98 -16 44 -43 118 -61 165 -18 47 -48 127 -66 179
-52 140 -42 131 -133 131 l-78 0 -22 -57z m151 -193 c21 -63 38 -120 38 -127
0 -19 -169 -18 -176 1 -3 7 8 49 25 92 16 44 33 93 37 109 17 73 31 59 76 -75z"/>
<path d="M7505 1767 c-3 -7 -4 -143 -3 -302 l3 -290 50 0 50 0 5 240 c3 132 7
242 8 245 6 13 25 -24 36 -71 32 -130 109 -395 118 -406 6 -8 34 -13 68 -13
34 0 62 5 68 13 6 6 19 50 30 97 11 47 27 105 35 130 8 25 28 93 43 153 16 59
32 107 36 107 4 0 9 -111 10 -247 l3 -248 55 0 55 0 0 300 0 300 -105 0 -105
0 -27 -105 c-16 -58 -41 -156 -57 -218 -16 -63 -32 -116 -35 -119 -10 -11 -24
8 -31 43 -6 34 -54 218 -92 352 l-14 52 -100 0 c-71 0 -101 -4 -104 -13z"/>
<path d="M8315 1767 c-3 -7 -4 -143 -3 -302 l3 -290 55 0 55 0 5 250 5 250 31
-100 c17 -55 48 -163 69 -240 20 -77 42 -146 48 -153 7 -9 31 -12 75 -10 l64
3 23 85 c51 195 77 289 98 355 l22 70 5 -255 5 -255 55 0 55 0 0 300 0 300
-102 3 -102 3 -21 -68 c-12 -37 -25 -88 -30 -113 -4 -25 -19 -83 -33 -130 -14
-47 -28 -100 -32 -118 -4 -22 -11 -30 -16 -25 -6 6 -28 79 -51 164 -22 85 -49
184 -60 222 l-20 67 -99 0 c-71 0 -101 -4 -104 -13z"/>
<path d="M9125 1768 c-3 -7 -4 -144 -3 -303 l3 -290 202 -3 203 -2 6 24 c3 14
3 34 -1 45 -6 20 -14 21 -146 21 l-139 0 0 85 c0 61 4 85 13 86 6 0 56 0 109
-1 120 -1 140 7 136 58 l-3 37 -127 3 -128 3 0 74 0 74 138 3 137 3 0 45 0 45
-198 3 c-153 2 -199 0 -202 -10z"/>
</g>
</svg>
